<?xml version="1.0" encoding="iso-8859-1"?>
<!-- Uploaded to: SVG Repo, www.svgrepo.com, Generator: SVG Repo Mixer Tools -->
<svg version="1.1" id="Layer_1" xmlns="http://www.w3.org/2000/svg" xmlns:xlink="http://www.w3.org/1999/xlink" 
	 viewBox="0 0 512 512" xml:space="preserve">
<polygon style="fill:#898989;" points="442.834,512 411.097,512 411.097,451.218 442.834,461.806 "/>
<g>
	<polygon style="fill:#B3B3B3;" points="100.904,512 69.167,512 69.167,461.806 100.904,451.218 	"/>
	<rect x="193.427" y="451.215" style="fill:#B3B3B3;" width="31.737" height="60.776"/>
</g>
<rect x="286.839" y="451.215" style="fill:#898989;" width="31.737" height="60.776"/>
<polygon style="fill:#B34D1D;" points="396.126,461.806 442.834,461.806 442.834,206.316 385.538,206.316 "/>
<polygon style="fill:#D14901;" points="349.417,461.806 396.126,461.806 396.126,206.316 338.83,206.316 "/>
<polygon style="fill:#B34D1D;" points="302.709,461.806 349.417,461.806 349.417,206.316 292.121,206.316 "/>
<polygon style="fill:#D14901;" points="245.413,296.737 302.709,286.149 302.709,206.316 245.413,206.316 "/>
<polygon style="fill:#F37A23;" points="198.705,296.737 256.001,286.149 256.001,206.316 198.705,206.316 "/>
<polygon style="fill:#FF9E36;" points="162.584,461.806 209.292,461.806 219.88,373.978 209.292,286.149 209.292,206.316 
	151.996,206.316 "/>
<polygon style="fill:#F37A23;" points="115.875,461.806 162.584,461.806 162.584,206.316 105.288,206.316 "/>
<rect x="69.166" y="206.312" style="fill:#FF9E36;" width="46.706" height="255.493"/>
<polygon style="fill:#FFBE00;" points="302.709,286.149 256.001,286.149 234.826,373.978 256.001,461.806 302.709,461.806 "/>
<rect x="209.295" y="286.151" style="fill:#FFE074;" width="46.706" height="175.654"/>
<polygon style="fill:#F37A23;" points="256.001,0 225.161,143.169 256.001,227.491 486.08,227.491 "/>
<polygon style="fill:#D14901;" points="25.92,227.491 256.001,227.491 256.001,0 "/>
<path style="fill:#FFBE00;" d="M256.001,92.587l-21.175,41.568l21.175,41.568c22.957,0,41.568-18.611,41.568-41.568
	S278.958,92.587,256.001,92.587z"/>
<path style="fill:#FFE074;" d="M214.432,134.155c0,22.957,18.611,41.568,41.568,41.568V92.587
	C233.043,92.587,214.432,111.198,214.432,134.155z"/>
</svg>